<?xml version="1.0" standalone="no"?>
<!DOCTYPE svg PUBLIC "-//W3C//DTD SVG 20010904//EN"
 "http://www.w3.org/TR/2001/REC-SVG-20010904/DTD/svg10.dtd">
<svg version="1.0" xmlns="http://www.w3.org/2000/svg"
 width="260.000000pt" height="260.000000pt" viewBox="0 0 260.000000 260.000000"
 preserveAspectRatio="xMidYMid meet">
<metadata>
Created by potrace 1.14, written by Peter Selinger 2001-2017
</metadata>
<g transform="translate(0.000000,260.000000) scale(0.100000,-0.100000)"
fill="#000000" stroke="none">
<path d="M0 1300 l0 -1300 1300 0 1300 0 0 1300 0 1300 -1300 0 -1300 0 0
-1300z m1166 1061 c-3 -5 8 -11 24 -15 27 -5 30 -9 30 -46 0 -23 5 -51 11 -62
14 -26 -2 -60 -37 -79 -13 -7 -24 -21 -24 -31 0 -10 -4 -18 -8 -18 -4 0 -21
-20 -36 -45 -16 -24 -32 -42 -37 -40 -4 3 -14 -2 -22 -10 -9 -8 -22 -15 -31
-15 -8 0 -18 -4 -21 -10 -3 -6 1 -7 9 -4 20 8 20 -10 1 -39 -25 -38 -15 -65
32 -87 24 -11 43 -22 43 -24 0 -9 -152 -106 -167 -106 -38 0 -92 -21 -116 -46
-19 -19 -40 -27 -83 -31 l-58 -6 23 39 c20 33 24 55 26 144 3 116 10 156 30
164 7 2 20 27 30 55 9 28 30 65 47 83 17 18 41 49 53 68 45 70 130 132 215
156 55 15 73 17 66 5z m350 -552 c3 -6 17 -9 30 -6 14 2 27 1 29 -3 3 -5 14
-6 25 -3 14 4 20 0 20 -11 0 -10 6 -13 15 -10 11 5 15 -1 15 -25 0 -27 -4 -31
-27 -32 -134 -8 -171 -7 -191 3 -16 8 -25 9 -30 1 -5 -6 -14 -4 -26 8 -11 11
-14 19 -8 19 7 0 12 6 12 13 0 13 58 43 67 33 3 -3 15 1 27 9 25 18 33 19 42
4z m241 -175 c-3 -3 -12 -4 -19 -1 -8 3 -5 6 6 6 11 1 17 -2 13 -5z m-998 -17
c-9 -7 -19 -24 -22 -39 -5 -19 -13 -26 -28 -25 -16 1 -19 7 -17 32 2 24 9 31
33 36 46 10 51 9 34 -4z m536 -7 c3 -5 -1 -10 -10 -10 -9 0 -13 5 -10 10 3 6
8 10 10 10 2 0 7 -4 10 -10z m572 -16 c3 -8 0 -27 -8 -42 l-13 -27 -4 30 c-2
17 -8 36 -14 43 -8 9 -5 12 11 12 12 0 24 -7 28 -16z m-37 -25 c0 -5 -4 -9
-10 -9 -5 0 -10 7 -10 16 0 8 5 12 10 9 6 -3 10 -10 10 -16z m-683 -31 c-3 -8
-6 -5 -6 6 -1 11 2 17 5 13 3 -3 4 -12 1 -19z m-517 -68 c0 -9 -3 -11 -8 -5
-4 6 -19 16 -34 22 -32 14 -35 28 -11 42 14 7 21 4 35 -17 10 -15 18 -34 18
-42z m74 37 c8 -7 21 -27 29 -44 18 -34 75 -78 64 -49 -4 9 -2 16 3 16 12 0
24 -65 15 -79 -4 -7 5 -11 24 -11 16 0 33 -5 36 -10 4 -6 26 -20 51 -31 42
-20 45 -21 72 -4 15 10 40 29 56 44 16 14 26 19 22 11 -3 -8 -9 -23 -12 -32
-3 -10 -14 -20 -23 -23 -9 -3 -37 -23 -61 -45 -25 -21 -58 -44 -73 -51 -24
-10 -31 -9 -52 11 -14 13 -25 31 -25 41 0 9 -7 19 -15 23 -8 3 -15 12 -15 21
0 8 -4 15 -9 15 -5 0 -14 12 -20 28 -7 15 -20 43 -31 62 -10 19 -19 43 -20 52
0 9 -9 20 -20 23 -11 3 -20 15 -20 26 0 22 6 24 24 6z m306 -37 c0 -5 -5 -10
-11 -10 -5 0 -7 5 -4 10 3 6 8 10 11 10 2 0 4 -4 4 -10z m343 -25 c4 -8 2 -17
-3 -20 -6 -4 -10 3 -10 14 0 25 6 27 13 6z m-659 -47 c22 4 46 -15 46 -38 0
-10 20 -45 45 -79 70 -95 88 -153 42 -135 -10 3 -20 -3 -27 -17 -10 -17 -14
-19 -21 -8 -10 16 -10 16 -13 -33 -2 -22 -13 -48 -30 -69 -19 -22 -24 -34 -15
-39 6 -4 10 -13 7 -20 -3 -9 -8 -8 -20 4 -12 11 -17 32 -16 68 1 32 -3 53 -10
56 -7 2 -12 8 -12 13 0 5 3 8 8 6 13 -4 14 17 2 100 -7 45 -9 86 -6 92 4 5 2
12 -3 15 -5 4 -12 -7 -16 -24 -4 -16 -10 -30 -14 -30 -4 0 -12 -12 -18 -27 -9
-24 -11 -25 -12 -7 -1 12 8 33 19 47 11 14 20 38 20 55 0 16 3 51 7 78 6 44 8
46 13 19 4 -22 11 -29 24 -27z m556 27 c7 -9 10 -18 8 -21 -3 -3 -2 -20 2 -38
7 -30 4 -35 -19 -47 -14 -8 -48 -28 -75 -46 -26 -18 -52 -30 -57 -27 -5 3 -9
-4 -9 -15 0 -12 -4 -21 -9 -21 -4 0 -20 -11 -35 -25 l-26 -24 0 24 c0 15 14
36 40 58 25 21 42 46 46 66 4 18 22 47 40 65 19 18 34 38 34 44 0 23 43 28 60
7z m723 -27 c6 -20 -15 -47 -35 -48 -11 0 -10 28 2 51 14 25 26 24 33 -3z
m-1358 -15 c10 -14 9 -20 -6 -32 -21 -17 -35 -94 -26 -133 4 -14 18 -31 32
-38 15 -8 23 -20 21 -27 -3 -8 1 -16 9 -19 8 -4 15 -13 15 -21 0 -11 -7 -13
-24 -9 -20 5 -23 3 -19 -18 5 -26 28 -41 38 -26 8 13 25 13 25 -1 0 -20 -41
-69 -58 -69 -9 0 -26 13 -37 28 -17 23 -20 43 -20 127 0 55 3 120 7 145 20
123 21 124 43 93z m1415 -8 c0 -8 -8 -23 -17 -33 -12 -11 -18 -34 -19 -67 -2
-90 -3 -100 -14 -89 -20 20 -11 97 18 167 16 38 32 49 32 22z m6 -92 c-9 -26
-16 -54 -16 -64 0 -10 -4 -20 -9 -23 -10 -6 -9 -5 10 84 13 62 21 80 27 62 2
-7 -3 -33 -12 -59z m-746 -3 c0 -13 -19 -22 -30 -15 -14 9 0 34 16 28 8 -3 14
-9 14 -13z m640 -34 c0 -11 -10 -34 -21 -51 -20 -28 -21 -29 -15 -5 3 14 6 42
6 64 0 33 2 37 15 26 8 -7 15 -22 15 -34z m-180 -12 c0 -20 -7 -17 -20 6 -9
16 -8 18 5 14 8 -4 15 -12 15 -20z m-100 -15 c0 -5 -8 -9 -17 -8 -11 0 -13 3
-5 6 6 2 9 10 6 15 -4 7 -2 8 4 4 7 -4 12 -11 12 -17z m58 -14 c0 -14 -4 -25
-9 -25 -5 0 -9 7 -9 16 0 8 -4 12 -10 9 -5 -3 -10 1 -10 10 0 9 5 13 10 10 6
-3 10 -1 10 5 0 6 4 9 9 6 5 -3 9 -17 9 -31z m297 -77 c-8 -58 -36 -131 -55
-143 -15 -9 -70 43 -70 67 0 11 5 16 11 12 26 -16 93 40 104 89 11 46 17 30
10 -25z m-37 9 c4 -18 -42 -42 -59 -31 -14 9 -10 24 6 24 9 0 18 7 22 15 7 20
27 14 31 -8z m-890 -49 c37 -43 52 -74 38 -76 -6 0 -31 -7 -55 -14 -35 -10
-45 -10 -48 0 -3 6 -11 12 -19 12 -28 0 -4 65 36 97 20 16 18 17 48 -19z m-30
-234 c12 -4 22 -10 22 -15 0 -14 -28 -11 -33 4 -3 8 -10 6 -21 -8 -16 -21 -20
-17 -10 9 7 18 9 18 42 10z m257 -24 c-3 -5 -16 -10 -28 -9 -21 0 -21 1 -2 9
28 12 37 12 30 0z m-284 -213 c-1 -12 -15 -9 -19 4 -3 6 1 10 8 8 6 -3 11 -8
11 -12z m-357 -572 c-9 -14 -18 -25 -21 -25 -5 0 5 18 20 38 17 22 18 13 1
-13z"/>
<path d="M712 1680 c0 -14 2 -19 5 -12 2 6 2 18 0 25 -3 6 -5 1 -5 -13z"/>
<path d="M580 1155 c0 -8 5 -15 10 -15 6 0 10 7 10 15 0 8 -4 15 -10 15 -5 0
-10 -7 -10 -15z"/>
</g>
</svg>
